<mxfile host="Electron" agent="Mozilla/5.0 (Windows NT 10.0; Win64; x64) AppleWebKit/537.36 (KHTML, like Gecko) draw.io/24.7.5 Chrome/126.0.6478.183 Electron/31.3.0 Safari/537.36" version="24.7.5">
  <diagram name="Diagrama Alto Nivel" id="ZaK2dB3ZBRLAaXrLbP-g">
    <mxGraphModel dx="1668" dy="965" grid="1" gridSize="10" guides="1" tooltips="1" connect="1" arrows="1" fold="1" page="1" pageScale="1" pageWidth="827" pageHeight="1169" math="0" shadow="0">
      <root>
        <mxCell id="0" />
        <mxCell id="1" parent="0" />
        <mxCell id="tFQhPaSpxETiiJrmMDkf-41" value="" style="rounded=0;whiteSpace=wrap;html=1;" parent="1" vertex="1">
          <mxGeometry x="40" y="570" width="1220" height="900" as="geometry" />
        </mxCell>
        <mxCell id="tFQhPaSpxETiiJrmMDkf-2" value="Agente Comprador" style="rounded=0;whiteSpace=wrap;html=1;fillColor=#fff2cc;strokeColor=#d6b656;" parent="1" vertex="1">
          <mxGeometry x="275" y="592.5" width="170" height="50" as="geometry" />
        </mxCell>
        <mxCell id="tFQhPaSpxETiiJrmMDkf-3" value="" style="shape=umlActor;verticalLabelPosition=bottom;verticalAlign=top;html=1;outlineConnect=0;fillColor=#ffe6cc;strokeColor=#d79b00;" parent="1" vertex="1">
          <mxGeometry x="425" y="605" width="12.5" height="25" as="geometry" />
        </mxCell>
        <mxCell id="tFQhPaSpxETiiJrmMDkf-4" value="Capa PresentaciÃ³n" style="rounded=1;whiteSpace=wrap;html=1;fillColor=#f5f5f5;fontColor=#333333;strokeColor=#666666;arcSize=11;" parent="1" vertex="1">
          <mxGeometry x="90" y="710" width="220" height="30" as="geometry" />
        </mxCell>
        <mxCell id="tFQhPaSpxETiiJrmMDkf-5" value="" style="rounded=1;whiteSpace=wrap;html=1;fillColor=#f5f5f5;fontColor=#333333;strokeColor=#666666;arcSize=2;" parent="1" vertex="1">
          <mxGeometry x="80" y="734" width="440" height="236" as="geometry" />
        </mxCell>
        <mxCell id="tFQhPaSpxETiiJrmMDkf-8" value="" style="group" parent="1" vertex="1" connectable="0">
          <mxGeometry x="140" y="750" width="320" height="200" as="geometry" />
        </mxCell>
        <mxCell id="tFQhPaSpxETiiJrmMDkf-6" value="Front Ecommerce" style="rounded=1;whiteSpace=wrap;html=1;fillColor=#f5f5f5;fontColor=#333333;strokeColor=#666666;arcSize=18;" parent="tFQhPaSpxETiiJrmMDkf-8" vertex="1">
          <mxGeometry x="7.272727272727273" width="160" height="23.076923076923077" as="geometry" />
        </mxCell>
        <mxCell id="tFQhPaSpxETiiJrmMDkf-7" value="" style="rounded=1;whiteSpace=wrap;html=1;fillColor=#f5f5f5;fontColor=#333333;strokeColor=#666666;arcSize=2;" parent="tFQhPaSpxETiiJrmMDkf-8" vertex="1">
          <mxGeometry y="18.461538461538463" width="320" height="181.53846153846155" as="geometry" />
        </mxCell>
        <mxCell id="tFQhPaSpxETiiJrmMDkf-9" value="Componente Ordenes" style="rounded=0;whiteSpace=wrap;html=1;fillColor=#b8fefe;strokeColor=#8eb7b6;" parent="tFQhPaSpxETiiJrmMDkf-8" vertex="1">
          <mxGeometry x="40" y="65" width="240" height="45" as="geometry" />
        </mxCell>
        <mxCell id="tFQhPaSpxETiiJrmMDkf-10" value="" style="sketch=0;outlineConnect=0;dashed=0;verticalLabelPosition=bottom;verticalAlign=top;align=center;html=1;fontSize=12;fontStyle=0;aspect=fixed;pointerEvents=1;shape=mxgraph.aws4.notebook;fillColor=#000000;" parent="tFQhPaSpxETiiJrmMDkf-8" vertex="1">
          <mxGeometry x="256" y="77.5" width="17.44" height="20" as="geometry" />
        </mxCell>
        <mxCell id="tFQhPaSpxETiiJrmMDkf-12" style="edgeStyle=orthogonalEdgeStyle;rounded=0;orthogonalLoop=1;jettySize=auto;html=1;exitX=0.5;exitY=1;exitDx=0;exitDy=0;entryX=0.75;entryY=0;entryDx=0;entryDy=0;" parent="1" source="tFQhPaSpxETiiJrmMDkf-2" target="tFQhPaSpxETiiJrmMDkf-9" edge="1">
          <mxGeometry relative="1" as="geometry" />
        </mxCell>
        <mxCell id="tFQhPaSpxETiiJrmMDkf-13" value="Capa Negocio" style="rounded=1;whiteSpace=wrap;html=1;fillColor=#f5f5f5;fontColor=#333333;strokeColor=#666666;arcSize=11;" parent="1" vertex="1">
          <mxGeometry x="610" y="710" width="220" height="30" as="geometry" />
        </mxCell>
        <mxCell id="tFQhPaSpxETiiJrmMDkf-14" value="" style="rounded=1;whiteSpace=wrap;html=1;fillColor=#f5f5f5;fontColor=#333333;strokeColor=#666666;arcSize=2;" parent="1" vertex="1">
          <mxGeometry x="600" y="734" width="440" height="236" as="geometry" />
        </mxCell>
        <mxCell id="tFQhPaSpxETiiJrmMDkf-15" value="" style="group" parent="1" vertex="1" connectable="0">
          <mxGeometry x="660" y="750" width="350" height="200" as="geometry" />
        </mxCell>
        <mxCell id="tFQhPaSpxETiiJrmMDkf-16" value="EcommerceGateway" style="rounded=1;whiteSpace=wrap;html=1;fillColor=#f5f5f5;fontColor=#333333;strokeColor=#666666;arcSize=18;" parent="tFQhPaSpxETiiJrmMDkf-15" vertex="1">
          <mxGeometry x="7.272727272727273" width="160" height="23.076923076923077" as="geometry" />
        </mxCell>
        <mxCell id="tFQhPaSpxETiiJrmMDkf-17" value="" style="rounded=1;whiteSpace=wrap;html=1;fillColor=#f5f5f5;fontColor=#333333;strokeColor=#666666;arcSize=2;" parent="tFQhPaSpxETiiJrmMDkf-15" vertex="1">
          <mxGeometry y="18.461538461538463" width="320" height="181.53846153846155" as="geometry" />
        </mxCell>
        <mxCell id="tFQhPaSpxETiiJrmMDkf-18" value="Listado de Ordenes" style="rounded=0;whiteSpace=wrap;html=1;fillColor=#b8fefe;strokeColor=#8eb7b6;" parent="tFQhPaSpxETiiJrmMDkf-15" vertex="1">
          <mxGeometry x="40" y="65" width="240" height="45" as="geometry" />
        </mxCell>
        <mxCell id="tFQhPaSpxETiiJrmMDkf-38" value="Crear Orden" style="rounded=0;whiteSpace=wrap;html=1;fillColor=#b8fefe;strokeColor=#8eb7b6;" parent="tFQhPaSpxETiiJrmMDkf-15" vertex="1">
          <mxGeometry x="40" y="130" width="240" height="45" as="geometry" />
        </mxCell>
        <mxCell id="tFQhPaSpxETiiJrmMDkf-42" value="" style="rounded=1;whiteSpace=wrap;html=1;arcSize=50;fillColor=#b8fefe;" parent="tFQhPaSpxETiiJrmMDkf-15" vertex="1">
          <mxGeometry x="250" y="70" width="20" height="11" as="geometry" />
        </mxCell>
        <mxCell id="tFQhPaSpxETiiJrmMDkf-44" value="" style="rounded=1;whiteSpace=wrap;html=1;arcSize=50;fillColor=#b8fefe;" parent="tFQhPaSpxETiiJrmMDkf-15" vertex="1">
          <mxGeometry x="250" y="135" width="20" height="11" as="geometry" />
        </mxCell>
        <mxCell id="tFQhPaSpxETiiJrmMDkf-20" style="edgeStyle=orthogonalEdgeStyle;rounded=0;orthogonalLoop=1;jettySize=auto;html=1;entryX=0;entryY=0.5;entryDx=0;entryDy=0;" parent="1" source="tFQhPaSpxETiiJrmMDkf-9" target="tFQhPaSpxETiiJrmMDkf-18" edge="1">
          <mxGeometry relative="1" as="geometry" />
        </mxCell>
        <mxCell id="tFQhPaSpxETiiJrmMDkf-26" value="BD eComerce" style="rounded=0;whiteSpace=wrap;html=1;fillColor=#b8fefe;strokeColor=#8eb7b6;" parent="1" vertex="1">
          <mxGeometry x="1080" y="1160" width="140" height="60" as="geometry" />
        </mxCell>
        <mxCell id="tFQhPaSpxETiiJrmMDkf-40" value="" style="shape=cylinder3;whiteSpace=wrap;html=1;boundedLbl=1;backgroundOutline=1;size=4.595744680851112;fillColor=#b8fefe;" parent="1" vertex="1">
          <mxGeometry x="1195" y="1169" width="20" height="25" as="geometry" />
        </mxCell>
        <mxCell id="9whJmEvrKm1sDDlKtckv-2" value="" style="endArrow=classic;html=1;rounded=0;entryX=0;entryY=0.75;entryDx=0;entryDy=0;exitX=0.5;exitY=1;exitDx=0;exitDy=0;" edge="1" parent="1" source="tFQhPaSpxETiiJrmMDkf-9" target="tFQhPaSpxETiiJrmMDkf-38">
          <mxGeometry width="50" height="50" relative="1" as="geometry">
            <mxPoint x="700" y="750" as="sourcePoint" />
            <mxPoint x="750" y="700" as="targetPoint" />
            <Array as="points">
              <mxPoint x="300" y="910" />
            </Array>
          </mxGeometry>
        </mxCell>
        <mxCell id="9whJmEvrKm1sDDlKtckv-4" value="Capa Negocio" style="rounded=1;whiteSpace=wrap;html=1;fillColor=#f5f5f5;fontColor=#333333;strokeColor=#666666;arcSize=11;" vertex="1" parent="1">
          <mxGeometry x="610" y="1050" width="220" height="30" as="geometry" />
        </mxCell>
        <mxCell id="9whJmEvrKm1sDDlKtckv-5" value="" style="rounded=1;whiteSpace=wrap;html=1;fillColor=#f5f5f5;fontColor=#333333;strokeColor=#666666;arcSize=2;" vertex="1" parent="1">
          <mxGeometry x="600" y="1074" width="440" height="236" as="geometry" />
        </mxCell>
        <mxCell id="9whJmEvrKm1sDDlKtckv-6" value="" style="group" vertex="1" connectable="0" parent="1">
          <mxGeometry x="660" y="1090" width="350" height="200" as="geometry" />
        </mxCell>
        <mxCell id="9whJmEvrKm1sDDlKtckv-7" value="EcommerceMicroservice" style="rounded=1;whiteSpace=wrap;html=1;fillColor=#f5f5f5;fontColor=#333333;strokeColor=#666666;arcSize=18;" vertex="1" parent="9whJmEvrKm1sDDlKtckv-6">
          <mxGeometry x="7.272727272727273" width="160" height="23.076923076923077" as="geometry" />
        </mxCell>
        <mxCell id="9whJmEvrKm1sDDlKtckv-8" value="" style="rounded=1;whiteSpace=wrap;html=1;fillColor=#f5f5f5;fontColor=#333333;strokeColor=#666666;arcSize=2;" vertex="1" parent="9whJmEvrKm1sDDlKtckv-6">
          <mxGeometry y="18.461538461538463" width="320" height="181.53846153846155" as="geometry" />
        </mxCell>
        <mxCell id="9whJmEvrKm1sDDlKtckv-9" value="Listado de Ordenes" style="rounded=0;whiteSpace=wrap;html=1;fillColor=#b8fefe;strokeColor=#8eb7b6;" vertex="1" parent="9whJmEvrKm1sDDlKtckv-6">
          <mxGeometry x="40" y="65" width="240" height="45" as="geometry" />
        </mxCell>
        <mxCell id="9whJmEvrKm1sDDlKtckv-10" value="Crear Orden" style="rounded=0;whiteSpace=wrap;html=1;fillColor=#b8fefe;strokeColor=#8eb7b6;" vertex="1" parent="9whJmEvrKm1sDDlKtckv-6">
          <mxGeometry x="40" y="130" width="240" height="45" as="geometry" />
        </mxCell>
        <mxCell id="9whJmEvrKm1sDDlKtckv-11" value="" style="rounded=1;whiteSpace=wrap;html=1;arcSize=50;fillColor=#b8fefe;" vertex="1" parent="9whJmEvrKm1sDDlKtckv-6">
          <mxGeometry x="250" y="70" width="20" height="11" as="geometry" />
        </mxCell>
        <mxCell id="9whJmEvrKm1sDDlKtckv-12" value="" style="rounded=1;whiteSpace=wrap;html=1;arcSize=50;fillColor=#b8fefe;" vertex="1" parent="9whJmEvrKm1sDDlKtckv-6">
          <mxGeometry x="250" y="135" width="20" height="11" as="geometry" />
        </mxCell>
        <mxCell id="9whJmEvrKm1sDDlKtckv-13" style="edgeStyle=orthogonalEdgeStyle;rounded=0;orthogonalLoop=1;jettySize=auto;html=1;entryX=0.5;entryY=0;entryDx=0;entryDy=0;" edge="1" parent="1" target="9whJmEvrKm1sDDlKtckv-9">
          <mxGeometry relative="1" as="geometry">
            <mxPoint x="820" y="860" as="sourcePoint" />
            <mxPoint x="710" y="848" as="targetPoint" />
          </mxGeometry>
        </mxCell>
        <mxCell id="9whJmEvrKm1sDDlKtckv-14" value="" style="endArrow=classic;html=1;rounded=0;entryX=0.75;entryY=0;entryDx=0;entryDy=0;exitX=0.75;exitY=1;exitDx=0;exitDy=0;" edge="1" parent="1" source="tFQhPaSpxETiiJrmMDkf-38" target="9whJmEvrKm1sDDlKtckv-10">
          <mxGeometry width="50" height="50" relative="1" as="geometry">
            <mxPoint x="310" y="870" as="sourcePoint" />
            <mxPoint x="710" y="924" as="targetPoint" />
            <Array as="points" />
          </mxGeometry>
        </mxCell>
        <mxCell id="tFQhPaSpxETiiJrmMDkf-37" style="edgeStyle=orthogonalEdgeStyle;rounded=0;orthogonalLoop=1;jettySize=auto;html=1;dashed=1;dashPattern=12 12;exitX=1;exitY=0.5;exitDx=0;exitDy=0;" parent="1" source="9whJmEvrKm1sDDlKtckv-9" target="tFQhPaSpxETiiJrmMDkf-26" edge="1">
          <mxGeometry relative="1" as="geometry">
            <mxPoint x="933.4400000000005" y="837.5" as="sourcePoint" />
          </mxGeometry>
        </mxCell>
        <mxCell id="9whJmEvrKm1sDDlKtckv-3" style="edgeStyle=orthogonalEdgeStyle;rounded=0;orthogonalLoop=1;jettySize=auto;html=1;dashed=1;dashPattern=12 12;exitX=1;exitY=0.5;exitDx=0;exitDy=0;entryX=0.5;entryY=1;entryDx=0;entryDy=0;" edge="1" parent="1" source="9whJmEvrKm1sDDlKtckv-10" target="tFQhPaSpxETiiJrmMDkf-26">
          <mxGeometry relative="1" as="geometry">
            <mxPoint x="951" y="848" as="sourcePoint" />
            <mxPoint x="1090" y="847" as="targetPoint" />
          </mxGeometry>
        </mxCell>
        <mxCell id="9whJmEvrKm1sDDlKtckv-15" value="" style="rounded=0;whiteSpace=wrap;html=1;" vertex="1" parent="1">
          <mxGeometry x="40" y="1520" width="1220" height="900" as="geometry" />
        </mxCell>
        <mxCell id="9whJmEvrKm1sDDlKtckv-16" value="Agente Comprador" style="rounded=0;whiteSpace=wrap;html=1;fillColor=#fff2cc;strokeColor=#d6b656;" vertex="1" parent="1">
          <mxGeometry x="275" y="1542.5" width="170" height="50" as="geometry" />
        </mxCell>
        <mxCell id="9whJmEvrKm1sDDlKtckv-17" value="" style="shape=umlActor;verticalLabelPosition=bottom;verticalAlign=top;html=1;outlineConnect=0;fillColor=#ffe6cc;strokeColor=#d79b00;" vertex="1" parent="1">
          <mxGeometry x="425" y="1555" width="12.5" height="25" as="geometry" />
        </mxCell>
        <mxCell id="9whJmEvrKm1sDDlKtckv-18" value="Capa PresentaciÃ³n" style="rounded=1;whiteSpace=wrap;html=1;fillColor=#f5f5f5;fontColor=#333333;strokeColor=#666666;arcSize=11;" vertex="1" parent="1">
          <mxGeometry x="90" y="1660" width="220" height="30" as="geometry" />
        </mxCell>
        <mxCell id="9whJmEvrKm1sDDlKtckv-19" value="" style="rounded=1;whiteSpace=wrap;html=1;fillColor=#f5f5f5;fontColor=#333333;strokeColor=#666666;arcSize=2;" vertex="1" parent="1">
          <mxGeometry x="80" y="1684" width="440" height="236" as="geometry" />
        </mxCell>
        <mxCell id="9whJmEvrKm1sDDlKtckv-20" value="" style="group" vertex="1" connectable="0" parent="1">
          <mxGeometry x="140" y="1700" width="320" height="200" as="geometry" />
        </mxCell>
        <mxCell id="9whJmEvrKm1sDDlKtckv-21" value="Front Ecommerce" style="rounded=1;whiteSpace=wrap;html=1;fillColor=#f5f5f5;fontColor=#333333;strokeColor=#666666;arcSize=18;" vertex="1" parent="9whJmEvrKm1sDDlKtckv-20">
          <mxGeometry x="7.272727272727273" width="160" height="23.076923076923077" as="geometry" />
        </mxCell>
        <mxCell id="9whJmEvrKm1sDDlKtckv-22" value="" style="rounded=1;whiteSpace=wrap;html=1;fillColor=#f5f5f5;fontColor=#333333;strokeColor=#666666;arcSize=2;" vertex="1" parent="9whJmEvrKm1sDDlKtckv-20">
          <mxGeometry y="18.461538461538463" width="320" height="181.53846153846155" as="geometry" />
        </mxCell>
        <mxCell id="9whJmEvrKm1sDDlKtckv-23" value="Componente Productos" style="rounded=0;whiteSpace=wrap;html=1;fillColor=#b8fefe;strokeColor=#8eb7b6;" vertex="1" parent="9whJmEvrKm1sDDlKtckv-20">
          <mxGeometry x="40" y="65" width="240" height="45" as="geometry" />
        </mxCell>
        <mxCell id="9whJmEvrKm1sDDlKtckv-24" value="" style="sketch=0;outlineConnect=0;dashed=0;verticalLabelPosition=bottom;verticalAlign=top;align=center;html=1;fontSize=12;fontStyle=0;aspect=fixed;pointerEvents=1;shape=mxgraph.aws4.notebook;fillColor=#000000;" vertex="1" parent="9whJmEvrKm1sDDlKtckv-20">
          <mxGeometry x="256" y="77.5" width="17.44" height="20" as="geometry" />
        </mxCell>
        <mxCell id="9whJmEvrKm1sDDlKtckv-25" style="edgeStyle=orthogonalEdgeStyle;rounded=0;orthogonalLoop=1;jettySize=auto;html=1;exitX=0.5;exitY=1;exitDx=0;exitDy=0;entryX=0.75;entryY=0;entryDx=0;entryDy=0;" edge="1" parent="1" source="9whJmEvrKm1sDDlKtckv-16" target="9whJmEvrKm1sDDlKtckv-23">
          <mxGeometry relative="1" as="geometry" />
        </mxCell>
        <mxCell id="9whJmEvrKm1sDDlKtckv-26" value="Capa Negocio" style="rounded=1;whiteSpace=wrap;html=1;fillColor=#f5f5f5;fontColor=#333333;strokeColor=#666666;arcSize=11;" vertex="1" parent="1">
          <mxGeometry x="610" y="1660" width="220" height="30" as="geometry" />
        </mxCell>
        <mxCell id="9whJmEvrKm1sDDlKtckv-27" value="" style="rounded=1;whiteSpace=wrap;html=1;fillColor=#f5f5f5;fontColor=#333333;strokeColor=#666666;arcSize=2;" vertex="1" parent="1">
          <mxGeometry x="600" y="1684" width="440" height="236" as="geometry" />
        </mxCell>
        <mxCell id="9whJmEvrKm1sDDlKtckv-28" value="" style="group" vertex="1" connectable="0" parent="1">
          <mxGeometry x="660" y="1700" width="350" height="200" as="geometry" />
        </mxCell>
        <mxCell id="9whJmEvrKm1sDDlKtckv-29" value="APIGateWay" style="rounded=1;whiteSpace=wrap;html=1;fillColor=#f5f5f5;fontColor=#333333;strokeColor=#666666;arcSize=18;" vertex="1" parent="9whJmEvrKm1sDDlKtckv-28">
          <mxGeometry x="7.272727272727273" width="160" height="23.076923076923077" as="geometry" />
        </mxCell>
        <mxCell id="9whJmEvrKm1sDDlKtckv-30" value="" style="rounded=1;whiteSpace=wrap;html=1;fillColor=#f5f5f5;fontColor=#333333;strokeColor=#666666;arcSize=2;" vertex="1" parent="9whJmEvrKm1sDDlKtckv-28">
          <mxGeometry y="18.461538461538463" width="320" height="181.53846153846155" as="geometry" />
        </mxCell>
        <mxCell id="9whJmEvrKm1sDDlKtckv-31" value="Listado de Productos" style="rounded=0;whiteSpace=wrap;html=1;fillColor=#b8fefe;strokeColor=#8eb7b6;" vertex="1" parent="9whJmEvrKm1sDDlKtckv-28">
          <mxGeometry x="40" y="65" width="240" height="45" as="geometry" />
        </mxCell>
        <mxCell id="9whJmEvrKm1sDDlKtckv-33" value="" style="rounded=1;whiteSpace=wrap;html=1;arcSize=50;fillColor=#b8fefe;" vertex="1" parent="9whJmEvrKm1sDDlKtckv-28">
          <mxGeometry x="250" y="70" width="20" height="11" as="geometry" />
        </mxCell>
        <mxCell id="9whJmEvrKm1sDDlKtckv-35" style="edgeStyle=orthogonalEdgeStyle;rounded=0;orthogonalLoop=1;jettySize=auto;html=1;entryX=0;entryY=0.5;entryDx=0;entryDy=0;" edge="1" parent="1" source="9whJmEvrKm1sDDlKtckv-23" target="9whJmEvrKm1sDDlKtckv-31">
          <mxGeometry relative="1" as="geometry" />
        </mxCell>
        <mxCell id="9whJmEvrKm1sDDlKtckv-36" value="BD eComerce" style="rounded=0;whiteSpace=wrap;html=1;fillColor=#b8fefe;strokeColor=#8eb7b6;" vertex="1" parent="1">
          <mxGeometry x="1080" y="2110" width="140" height="60" as="geometry" />
        </mxCell>
        <mxCell id="9whJmEvrKm1sDDlKtckv-37" value="" style="shape=cylinder3;whiteSpace=wrap;html=1;boundedLbl=1;backgroundOutline=1;size=4.595744680851112;fillColor=#b8fefe;" vertex="1" parent="1">
          <mxGeometry x="1195" y="2119" width="20" height="25" as="geometry" />
        </mxCell>
        <mxCell id="9whJmEvrKm1sDDlKtckv-38" value="" style="endArrow=classic;html=1;rounded=0;entryX=0;entryY=0.75;entryDx=0;entryDy=0;exitX=0.5;exitY=1;exitDx=0;exitDy=0;" edge="1" parent="1" source="9whJmEvrKm1sDDlKtckv-23">
          <mxGeometry width="50" height="50" relative="1" as="geometry">
            <mxPoint x="700" y="1700" as="sourcePoint" />
            <mxPoint x="700" y="1863.75" as="targetPoint" />
            <Array as="points">
              <mxPoint x="300" y="1860" />
            </Array>
          </mxGeometry>
        </mxCell>
        <mxCell id="9whJmEvrKm1sDDlKtckv-39" value="Capa Negocio" style="rounded=1;whiteSpace=wrap;html=1;fillColor=#f5f5f5;fontColor=#333333;strokeColor=#666666;arcSize=11;" vertex="1" parent="1">
          <mxGeometry x="610" y="2000" width="220" height="30" as="geometry" />
        </mxCell>
        <mxCell id="9whJmEvrKm1sDDlKtckv-40" value="" style="rounded=1;whiteSpace=wrap;html=1;fillColor=#f5f5f5;fontColor=#333333;strokeColor=#666666;arcSize=2;" vertex="1" parent="1">
          <mxGeometry x="600" y="2024" width="440" height="236" as="geometry" />
        </mxCell>
        <mxCell id="9whJmEvrKm1sDDlKtckv-41" value="" style="group" vertex="1" connectable="0" parent="1">
          <mxGeometry x="660" y="2040" width="350" height="200" as="geometry" />
        </mxCell>
        <mxCell id="9whJmEvrKm1sDDlKtckv-42" value="LambdaProductos" style="rounded=1;whiteSpace=wrap;html=1;fillColor=#f5f5f5;fontColor=#333333;strokeColor=#666666;arcSize=18;" vertex="1" parent="9whJmEvrKm1sDDlKtckv-41">
          <mxGeometry x="7.272727272727273" width="160" height="23.076923076923077" as="geometry" />
        </mxCell>
        <mxCell id="9whJmEvrKm1sDDlKtckv-43" value="" style="rounded=1;whiteSpace=wrap;html=1;fillColor=#f5f5f5;fontColor=#333333;strokeColor=#666666;arcSize=2;" vertex="1" parent="9whJmEvrKm1sDDlKtckv-41">
          <mxGeometry y="18.461538461538463" width="320" height="181.53846153846155" as="geometry" />
        </mxCell>
        <mxCell id="9whJmEvrKm1sDDlKtckv-45" value="Listado de Productos" style="rounded=0;whiteSpace=wrap;html=1;fillColor=#b8fefe;strokeColor=#8eb7b6;" vertex="1" parent="9whJmEvrKm1sDDlKtckv-41">
          <mxGeometry x="40" y="77.5" width="240" height="45" as="geometry" />
        </mxCell>
        <mxCell id="9whJmEvrKm1sDDlKtckv-46" value="" style="rounded=1;whiteSpace=wrap;html=1;arcSize=50;fillColor=#b8fefe;" vertex="1" parent="9whJmEvrKm1sDDlKtckv-41">
          <mxGeometry x="251" y="83" width="20" height="11" as="geometry" />
        </mxCell>
        <mxCell id="9whJmEvrKm1sDDlKtckv-49" value="" style="endArrow=classic;html=1;rounded=0;entryX=0.5;entryY=0;entryDx=0;entryDy=0;exitX=0.5;exitY=1;exitDx=0;exitDy=0;" edge="1" parent="1" source="9whJmEvrKm1sDDlKtckv-31" target="9whJmEvrKm1sDDlKtckv-45">
          <mxGeometry width="50" height="50" relative="1" as="geometry">
            <mxPoint x="880.0000000000005" y="1875" as="sourcePoint" />
            <mxPoint x="710" y="1874" as="targetPoint" />
            <Array as="points" />
          </mxGeometry>
        </mxCell>
        <mxCell id="9whJmEvrKm1sDDlKtckv-50" style="edgeStyle=orthogonalEdgeStyle;rounded=0;orthogonalLoop=1;jettySize=auto;html=1;dashed=1;dashPattern=12 12;exitX=1;exitY=0.5;exitDx=0;exitDy=0;" edge="1" parent="1" target="9whJmEvrKm1sDDlKtckv-36">
          <mxGeometry relative="1" as="geometry">
            <mxPoint x="940.0000000000005" y="2127.5" as="sourcePoint" />
          </mxGeometry>
        </mxCell>
      </root>
    </mxGraphModel>
  </diagram>
</mxfile>
